PathFileType	4	(X/Y/Z)	c:/Users/goper/Files/vsCode/490R/osim_files/A02/A02_PWS_06.trc
DataRate	CameraRate	NumFrames	NumMarkers	Units                	OrigDataRate	OrigDataStartFrame	OrigNumFrames
250.00	250.00	8	36	mm	250.0	1834	2933
                Frame#	Time	Mobility_markerset:LPSIS			Mobility_markerset:LASIS			Mobility_markerset:LTH1			Mobility_markerset:LTH2			Mobility_markerset:LTH3			Mobility_markerset:LTH4			Mobility_markerset:LLFE			Mobility_markerset:LMFE			Mobility_markerset:LSH1			Mobility_markerset:LSH2			Mobility_markerset:LSH3			Mobility_markerset:LSH4			Mobility_markerset:LLMAL			Mobility_markerset:LMMAL			Mobility_markerset:LCAL			Mobility_markerset:LMTP5			Mobility_markerset:LTOE			Mobility_markerset:LMTP1			Mobility_markerset:RPSIS			Mobility_markerset:RASIS			Mobility_markerset:RTH1			Mobility_markerset:RTH2			Mobility_markerset:RTH3			Mobility_markerset:RTH4			Mobility_markerset:RLFE			Mobility_markerset:RMFE			Mobility_markerset:RSH1			Mobility_markerset:RSH2			Mobility_markerset:RSH3			Mobility_markerset:RSH4			Mobility_markerset:RLMAL			Mobility_markerset:RMMAL			Mobility_markerset:RCAL			Mobility_markerset:RMTP1			Mobility_markerset:RTOE			Mobility_markerset:RMTP5		
		X1	Y1	Z1	X2	Y2	Z2	X3	Y3	Z3	X4	Y4	Z4	X5	Y5	Z5	X6	Y6	Z6	X7	Y7	Z7	X8	Y8	Z8	X9	Y9	Z9	X10	Y10	Z10	X11	Y11	Z11	X12	Y12	Z12	X13	Y13	Z13	X14	Y14	Z14	X15	Y15	Z15	X16	Y16	Z16	X17	Y17	Z17	X18	Y18	Z18	X19	Y19	Z19	X20	Y20	Z20	X21	Y21	Z21	X22	Y22	Z22	X23	Y23	Z23	X24	Y24	Z24	X25	Y25	Z25	X26	Y26	Z26	X27	Y27	Z27	X28	Y28	Z28	X29	Y29	Z29	X30	Y30	Z30	X31	Y31	Z31	X32	Y32	Z32	X33	Y33	Z33	X34	Y34	Z34	X35	Y35	Z35	X36	Y36	Z36

1834	7.33200	-2013.71362	955.16614	321.15469	-2167.84595	922.47333	380.63907	-2138.98828	663.92938	424.97919	-2165.63379	628.55188	422.29361	-2193.31177	690.97498	432.91223	0.00000	0.00000	0.00000	-2273.48096	486.68613	372.79898	0.00000	0.00000	0.00000	-2240.83154	387.13745	375.76141	-2258.42529	345.35287	381.42322	-2297.61499	407.43115	377.33234	-2308.27808	364.35501	383.93033	-2390.48389	125.70694	347.82922	-2392.62646	136.25504	263.28906	-2345.31152	65.70267	303.82980	-2501.24634	127.10025	356.60413	-2525.00317	174.45549	290.61856	-2510.07324	130.34012	245.74207	-2012.75220	969.51672	220.02165	0.00000	0.00000	0.00000	-2069.84888	631.20648	123.49793	-2065.49219	587.32507	125.24300	-2129.61670	617.60803	122.68733	-2116.23535	577.16028	122.62433	-2054.53442	473.59421	119.09108	-2081.22876	474.10474	250.68008	-1996.19666	298.49246	148.31944	-1989.80640	254.22755	157.61310	-2054.11011	284.09247	141.19861	-2039.61755	239.81236	150.16272	-1948.94568	93.51450	164.24840	-1963.10986	97.41967	245.72937	-1897.89526	76.66950	210.64478	-2086.12549	53.26886	235.94063	-2106.60522	63.61343	200.52515	-2073.38672	51.81706	145.35530
1835	7.33600	-2019.94495	953.52527	322.01025	-2171.66528	919.36847	381.73291	-2144.59131	662.25305	425.03659	-2171.06201	626.77673	422.62921	-2199.01270	689.27283	433.01224	0.00000	0.00000	0.00000	-2279.01147	485.02451	373.08493	0.00000	0.00000	0.00000	-2248.43164	384.83121	375.71536	-2267.09131	343.59735	381.35132	-2304.87427	406.58496	377.20169	-2316.54736	363.62033	383.74170	-2404.11694	127.02837	347.73749	-2405.90234	137.94295	262.40814	0.00000	0.00000	0.00000	-2513.43408	130.07048	355.32446	-2537.13989	179.14877	290.08017	-2523.40039	135.00641	244.90752	-2018.23279	968.03424	220.63808	0.00000	0.00000	0.00000	-2074.11523	630.67603	123.15767	-2069.35840	586.75861	124.89550	-2133.77295	616.66046	122.18212	-2120.09277	576.30243	122.26351	-2057.43237	473.15857	118.73867	-2084.33618	473.49210	250.30899	-1997.72461	297.93985	147.93230	-1991.13098	254.25813	157.50682	-2055.66333	283.68448	140.99077	-2040.97290	239.49652	150.06496	-1949.15137	93.71691	164.21045	-1963.00989	97.31712	245.22675	-1898.07959	76.95881	210.70761	-2086.22095	53.17356	235.96413	-2106.71558	63.43091	200.53369	-2073.45337	51.74261	145.37988
1836	7.34000	-2026.00562	952.08002	322.60696	-2177.56152	917.60577	381.97934	-2149.85400	660.81195	424.88754	-2176.46216	624.91614	422.88504	-2204.64185	687.48785	433.12277	0.00000	0.00000	0.00000	-2284.56836	483.42010	373.37759	0.00000	0.00000	0.00000	-2256.03223	382.74762	375.70108	-2275.73462	341.88544	381.21719	-2312.11914	405.76379	377.04871	-2324.73169	362.94754	383.45639	-2417.54810	128.06789	345.85071	-2418.68994	139.56546	261.54810	0.00000	0.00000	0.00000	-2526.42017	133.38608	354.38132	-2548.83228	183.62692	289.63470	-2536.19263	139.53835	244.04776	-2023.70654	966.59149	221.30991	0.00000	0.00000	0.00000	-2078.29370	630.00677	122.62734	-2073.23730	586.23273	124.41110	-2137.87866	615.65320	121.75235	-2124.15527	575.33948	121.96600	-2060.53345	472.68530	118.38188	-2087.33008	472.99561	249.98471	-2000.47241	298.90204	146.34721	-1992.59973	254.29832	157.36224	-2057.33594	283.24286	140.82143	-2042.25293	239.17682	149.86069	-1949.32263	93.92500	164.17967	-1962.80261	97.19531	244.58905	-1898.24951	77.29837	210.71870	-2086.34082	53.11301	235.95140	-2106.82861	63.31468	200.55406	-2074.09033	51.58076	145.43797
1837	7.34400	-2032.03467	950.53381	323.21768	-2183.47803	915.79742	382.21967	-2155.81885	659.08246	425.18835	-2182.02612	623.10138	423.08664	-2210.23877	685.85797	433.16043	0.00000	0.00000	0.00000	-2290.18652	481.72800	373.50970	0.00000	0.00000	0.00000	-2263.65796	380.78802	375.59128	-2284.18872	340.26959	381.05212	-2319.15088	404.84637	376.77185	-2332.94067	362.49274	382.96954	-2430.46167	128.71017	344.67477	-2431.04102	141.23135	260.78488	0.00000	0.00000	0.00000	-2539.11621	136.60895	353.49542	-2560.15283	187.97475	289.09702	-2548.82104	143.78258	242.71506	-2029.01050	965.19482	221.84879	0.00000	0.00000	0.00000	-2082.55859	629.42963	122.09496	-2077.15332	585.69287	123.92451	-2142.02881	614.58392	121.21382	-2127.52124	574.45441	121.17023	-2063.29614	472.32266	117.80556	-2090.52148	472.41333	249.52095	-2001.70032	298.47382	146.97453	-1993.95801	254.42694	157.15491	-2059.01294	282.79868	140.63184	-2043.46582	238.83209	149.67261	-1949.54846	94.11211	164.11360	-1964.62378	98.56629	246.82285	-1898.36926	77.63684	210.74223	-2086.37036	53.01895	235.95120	-2106.83301	63.29689	200.62375	-2074.13184	51.54154	145.42952
1838	7.34800	-2038.08557	948.92102	323.94583	-2189.44360	914.07922	382.35629	-2161.64526	657.59332	425.22266	-2187.74512	621.30621	423.26721	-2215.94165	684.15399	433.45526	0.00000	0.00000	0.00000	-2296.01953	480.17380	373.81155	0.00000	0.00000	0.00000	-2271.39307	378.89993	375.54669	-2292.65308	338.67365	380.93109	-2326.29541	403.98563	376.51172	-2340.82129	361.87939	382.68335	-2442.66211	130.10835	344.29129	-2443.13696	142.81960	259.86816	-2401.68481	67.22497	299.55417	-2551.43213	139.73293	352.69720	-2571.17993	192.04312	288.63754	-2560.23657	147.92542	242.57164	-2034.74377	963.61737	222.62090	0.00000	0.00000	0.00000	-2086.83521	628.80548	121.56400	-2081.12671	585.07306	123.45085	-2146.16699	613.39258	120.78586	-2131.41626	573.39777	120.70718	-2066.69922	471.72980	117.68176	-2093.59985	471.87112	249.22743	-2003.15137	298.51913	147.64197	-1995.34485	254.55455	156.90924	-2060.64966	282.37766	140.46422	-2044.91187	238.48967	149.61360	-1949.75842	94.37483	164.10460	-1964.92175	98.85332	246.87630	-1898.50439	77.97609	210.74626	-2086.49121	52.95697	235.96608	-2107.02124	63.21310	200.44711	-2074.17944	51.48689	145.41238
1839	7.35200	-2043.63538	947.50104	324.18149	-2195.44702	912.28876	382.38751	-2167.36938	656.37006	425.73615	-2193.62671	619.52234	423.36823	-2222.73022	682.24072	433.17111	0.00000	0.00000	0.00000	-2301.89453	478.51556	373.78503	0.00000	0.00000	0.00000	-2278.98730	377.14291	375.36646	-2300.50732	337.40714	380.39096	-2333.32690	403.09473	376.21854	-2348.70728	361.28461	382.23190	-2454.42480	131.28015	343.37994	-2454.57764	144.18764	259.12775	-2414.56812	67.62589	298.51169	-2562.95068	142.46127	351.82773	-2581.53809	195.74617	287.95908	-2571.74805	151.79890	241.66922	-2040.15125	962.20227	223.28148	0.00000	0.00000	0.00000	-2091.25293	628.14142	121.05907	-2085.23706	584.46637	123.01286	-2150.82129	612.40497	120.50698	-2135.42358	572.40021	120.22871	-2069.66089	471.25299	117.01308	-2096.88208	471.25284	248.77106	-2004.89331	298.60660	147.46690	-1996.83032	254.54591	156.79573	-2062.34668	281.91818	140.27722	-2046.18774	238.18024	149.41960	-1949.94788	94.58699	164.07310	-1965.14856	99.14881	246.86263	-1898.61377	78.34530	210.70601	-2086.56055	52.88233	235.92194	-2107.16626	63.15880	200.41370	-2073.62085	51.50401	145.36043
1840	7.35600	-2050.01733	945.88312	325.03290	-2201.46021	910.49811	382.35788	-2173.28589	654.53296	424.84915	-2199.73657	617.85815	423.46954	-2228.95215	680.57312	433.11499	0.00000	0.00000	0.00000	-2308.08105	477.18262	373.98462	0.00000	0.00000	0.00000	-2286.42358	375.42392	375.11075	-2308.48682	336.14471	380.08957	-2340.52319	402.17526	376.00409	-2356.51709	360.65067	381.85446	-2465.90576	132.50792	342.42242	-2465.65210	145.45767	258.35126	-2426.95142	68.15889	297.21893	-2574.14600	145.12936	351.03348	-2591.97998	199.10710	287.53308	-2582.86255	154.94781	240.39600	-2045.60864	960.77039	223.73277	0.00000	0.00000	0.00000	-2095.65063	627.53394	120.49947	-2089.33228	583.81598	122.52855	-2154.87378	611.08917	119.77767	-2139.49829	571.32983	119.79173	-2073.27539	470.65872	117.07762	-2100.06738	470.71155	248.45551	-2007.08887	298.86041	146.04413	-1998.67590	254.46835	156.42564	-2063.99341	281.47614	140.06317	-2047.56738	237.88051	149.30286	-1950.18372	94.83076	164.10054	-1965.38892	99.46291	246.83876	-1898.73157	78.79897	210.63869	-2086.64722	52.83164	235.92947	-2107.34082	63.10258	200.36287	-2073.66406	51.46590	145.37502
1841	7.36000	-2056.32471	944.19824	325.93881	-2208.42969	908.86401	382.22232	-2179.85278	653.12042	424.96051	-2206.18335	616.28088	423.44678	-2235.16333	678.99988	433.04639	0.00000	0.00000	0.00000	-2314.36597	475.67197	373.90338	-2321.33057	461.05594	249.64891	-2293.71875	373.72534	374.68793	-2316.31274	334.95795	379.64453	-2347.60010	401.25772	375.73746	-2364.05542	359.93433	381.47455	-2476.71387	133.36241	341.48615	-2476.25513	146.45601	257.42340	-2438.80029	68.45934	295.89297	-2584.74634	147.43605	350.21997	-2601.61230	201.93764	286.87738	-2593.12646	157.83134	240.08318	-2051.52588	959.09735	224.64430	0.00000	0.00000	0.00000	-2100.21777	626.79346	119.99613	-2093.52417	583.15875	122.02217	-2159.25928	609.82294	119.35136	-2143.59106	570.27399	119.38007	-2076.43408	470.06863	116.59741	-2103.36084	470.04929	248.03818	-2008.91113	298.82837	145.80696	-1999.81055	254.80544	156.42340	-2065.80859	281.02634	139.89690	-2049.03052	237.56178	149.18481	-1950.39966	95.07442	164.06157	-1965.57178	99.70446	246.70215	-1898.85217	79.25174	210.59436	-2086.72119	52.74711	235.91354	-2107.44067	63.01915	200.29779	-2073.70801	51.40727	145.36629
